<svg xmlns="http://www.w3.org/2000/svg" width="220" height="140" viewBox="0 0 220 140">
    <g fill="none" fill-rule="evenodd">
        <path d="M0 0h220v140H0z"/>
        <path fill="#FFF" d="M81.8 53.701V12.984L72 9v44.701z" opacity=".4"/>
        <path fill="#FFF" d="M2.434 28.02a17.163 17.163 0 0 1 6.126-3.765A20.989 20.989 0 0 1 15.7 23c2.51 0 4.632.309 6.365.926 1.733.618 3.137 1.574 4.213 2.869 1.076 1.295 1.862 2.928 2.36 4.9.498 1.972.747 4.313.747 7.022v15h-8.964V50.55h-.179c-.757 1.235-1.902 2.191-3.436 2.868-1.534.678-3.197 1.016-4.99 1.016-1.195 0-2.43-.16-3.705-.478a10.853 10.853 0 0 1-3.496-1.554c-1.056-.717-1.923-1.673-2.6-2.868C1.339 48.339 1 46.864 1 45.112c0-2.152.588-3.885 1.763-5.2 1.175-1.314 2.69-2.33 4.542-3.047 1.852-.718 3.914-1.196 6.185-1.435a63.37 63.37 0 0 1 6.634-.358v-.478c0-1.474-.518-2.56-1.554-3.257-1.036-.698-2.311-1.046-3.825-1.046a9.521 9.521 0 0 0-4.034.896c-1.295.598-2.4 1.315-3.317 2.152l-4.96-5.32zm17.988 12.729h-1.255c-1.075 0-2.161.05-3.257.15-1.095.099-2.071.288-2.928.567-.857.279-1.564.687-2.121 1.225-.558.538-.837 1.245-.837 2.122 0 .558.13 1.036.388 1.434.26.398.588.717.986.956.399.24.857.409 1.375.508.518.1 1.016.15 1.494.15 1.992 0 3.516-.548 4.572-1.644 1.055-1.095 1.583-2.58 1.583-4.452v-1.016zM66.048 50.936c0 2.909-.419 5.438-1.255 7.59-.837 2.151-2.012 3.934-3.526 5.349-1.514 1.414-3.357 2.47-5.528 3.167-2.171.697-4.572 1.046-7.201 1.046-2.63 0-5.329-.399-8.098-1.196-2.769-.796-5.17-1.952-7.201-3.466l4.9-6.992c1.435 1.275 3.018 2.221 4.751 2.839 1.734.617 3.437.926 5.11.926 2.869 0 4.99-.757 6.365-2.27 1.374-1.515 2.061-3.527 2.061-6.037V50.1h-.179c-.916 1.195-2.151 2.151-3.705 2.868-1.554.717-3.327 1.076-5.319 1.076-2.27 0-4.283-.409-6.036-1.225-1.753-.817-3.237-1.923-4.452-3.317-1.215-1.394-2.141-3.018-2.779-4.87-.637-1.853-.956-3.815-.956-5.887 0-2.072.319-4.044.956-5.916.638-1.873 1.564-3.526 2.78-4.96 1.214-1.435 2.698-2.58 4.451-3.437 1.753-.856 3.745-1.285 5.976-1.285 1.873 0 3.666.379 5.379 1.136 1.713.757 3.087 1.932 4.123 3.526h.12v-3.825L66.048 20v30.936zm-9.323-12.25c0-.997-.17-1.953-.508-2.87a7.295 7.295 0 0 0-1.464-2.42 6.925 6.925 0 0 0-2.27-1.643c-.877-.398-1.873-.598-2.989-.598-1.116 0-2.102.2-2.958.598a6.558 6.558 0 0 0-2.181 1.614 7.087 7.087 0 0 0-1.375 2.39 8.85 8.85 0 0 0-.478 2.928c0 .996.16 1.952.478 2.869a7.427 7.427 0 0 0 1.375 2.42 6.72 6.72 0 0 0 2.18 1.673c.857.419 1.843.628 2.959.628s2.122-.21 3.018-.628a7.084 7.084 0 0 0 2.27-1.643 7.22 7.22 0 0 0 1.435-2.39 8.38 8.38 0 0 0 .508-2.929zM72 53.717V16.984L81.8 13v40.717zM88 54.167V9.984L97.92 6v48.167zM134.016 39.195v1.195c0 .399-.02.777-.06 1.136h-21.574c.08.837.33 1.594.747 2.27a6.457 6.457 0 0 0 1.614 1.764 7.815 7.815 0 0 0 2.211 1.165 7.806 7.806 0 0 0 2.54.418c1.554 0 2.869-.288 3.944-.866 1.076-.578 1.952-1.325 2.63-2.241l6.812 4.303c-1.394 2.032-3.237 3.595-5.527 4.69-2.291 1.097-4.95 1.644-7.978 1.644-2.232 0-4.343-.348-6.335-1.046-1.992-.697-3.735-1.713-5.23-3.047-1.493-1.335-2.669-2.978-3.525-4.93-.857-1.953-1.285-4.184-1.285-6.694 0-2.43.418-4.631 1.255-6.603.837-1.973 1.972-3.646 3.406-5.02 1.435-1.375 3.128-2.44 5.08-3.198 1.952-.757 4.064-1.135 6.335-1.135 2.19 0 4.203.369 6.036 1.106 1.832.737 3.406 1.802 4.72 3.197 1.315 1.394 2.341 3.087 3.078 5.08.737 1.992 1.106 4.262 1.106 6.812zm-9.024-3.765c0-1.554-.488-2.888-1.464-4.004-.976-1.115-2.44-1.673-4.393-1.673-.956 0-1.832.15-2.629.448a6.811 6.811 0 0 0-2.092 1.225 6.059 6.059 0 0 0-1.434 1.823 5.336 5.336 0 0 0-.598 2.181h12.61zM96.151 98.49L81.482 80.307h-.111V98.49H72V59h9.37v16.064h.168L95.649 59h11.937L90.574 77.183 108.59 98.49z"/>
        <path fill="#FFF" d="M136.845 84.67c0 2.268-.41 4.322-1.227 6.163-.819 1.84-1.934 3.402-3.347 4.685-1.413 1.283-3.05 2.277-4.908 2.984-1.86.707-3.849 1.06-5.969 1.06-2.082 0-4.062-.353-5.94-1.06-1.878-.707-3.514-1.701-4.908-2.984-1.395-1.283-2.5-2.845-3.319-4.685-.818-1.841-1.227-3.895-1.227-6.164 0-2.268.409-4.313 1.227-6.135.818-1.822 1.924-3.365 3.319-4.63 1.394-1.264 3.03-2.23 4.908-2.9 1.878-.67 3.858-1.004 5.94-1.004 2.12 0 4.11.335 5.969 1.004 1.859.67 3.495 1.636 4.908 2.9 1.413 1.265 2.528 2.808 3.347 4.63.818 1.822 1.227 3.867 1.227 6.135zm-8.813 0c0-.893-.149-1.767-.446-2.622a6.932 6.932 0 0 0-1.283-2.26 6.52 6.52 0 0 0-2.064-1.589c-.818-.409-1.766-.613-2.845-.613-1.078 0-2.026.204-2.844.613a6.206 6.206 0 0 0-2.036 1.59 6.81 6.81 0 0 0-1.227 2.259 8.405 8.405 0 0 0 0 5.243 7.173 7.173 0 0 0 1.255 2.315 6.177 6.177 0 0 0 2.064 1.645c.818.409 1.766.614 2.844.614 1.079 0 2.027-.205 2.845-.614a6.177 6.177 0 0 0 2.064-1.645 7.173 7.173 0 0 0 1.255-2.315c.278-.855.418-1.73.418-2.622zM159.016 78.255a7.124 7.124 0 0 0-1.2-.223 12.06 12.06 0 0 0-1.143-.056c-1.227 0-2.259.223-3.095.67-.837.446-1.506.985-2.008 1.617a6.128 6.128 0 0 0-1.088 2.064c-.223.743-.335 1.394-.335 1.952v14.279H141V70.78h8.813v4.016h.111a9.016 9.016 0 0 1 3.012-3.458c1.302-.893 2.808-1.339 4.518-1.339.372 0 .735.019 1.088.056.353.037.641.093.864.167l-.39 8.032zM189.948 85.116v1.115c0 .372-.018.725-.056 1.06h-20.135a4.85 4.85 0 0 0 .697 2.12c.39.631.893 1.18 1.506 1.645a7.294 7.294 0 0 0 2.064 1.087c.762.26 1.552.39 2.37.39 1.45 0 2.678-.269 3.682-.808 1.004-.54 1.822-1.236 2.454-2.092l6.358 4.016c-1.301 1.897-3.02 3.356-5.159 4.379-2.138 1.022-4.62 1.534-7.446 1.534-2.082 0-4.053-.326-5.912-.976-1.86-.651-3.487-1.6-4.881-2.845-1.394-1.246-2.491-2.78-3.29-4.602-.8-1.822-1.2-3.904-1.2-6.247 0-2.268.39-4.322 1.171-6.163.781-1.84 1.84-3.402 3.18-4.685 1.338-1.283 2.919-2.278 4.74-2.984 1.823-.707 3.793-1.06 5.913-1.06 2.045 0 3.923.344 5.633 1.032 1.71.688 3.18 1.682 4.407 2.984 1.227 1.301 2.184 2.882 2.872 4.741.688 1.86 1.032 3.979 1.032 6.359zm-8.422-3.514c0-1.45-.456-2.696-1.367-3.737-.91-1.042-2.277-1.562-4.1-1.562-.892 0-1.71.14-2.453.418a6.357 6.357 0 0 0-1.953 1.144 5.655 5.655 0 0 0-1.338 1.7 4.98 4.98 0 0 0-.558 2.037h11.769zM193.339 74.685a16.018 16.018 0 0 1 5.717-3.514A19.59 19.59 0 0 1 205.72 70c2.343 0 4.323.288 5.94.865 1.618.576 2.929 1.468 3.933 2.677 1.004 1.208 1.738 2.733 2.203 4.574.465 1.84.697 4.025.697 6.553v14h-8.367v-2.956h-.167c-.706 1.153-1.775 2.045-3.207 2.677-1.432.633-2.984.949-4.657.949a14.24 14.24 0 0 1-3.459-.447 10.13 10.13 0 0 1-3.262-1.45c-.986-.67-1.795-1.562-2.427-2.677-.632-1.116-.948-2.491-.948-4.128 0-2.008.548-3.625 1.645-4.852 1.097-1.227 2.51-2.175 4.24-2.845 1.729-.67 3.653-1.115 5.772-1.338a59.145 59.145 0 0 1 6.192-.335v-.446c0-1.376-.484-2.39-1.45-3.04-.967-.65-2.157-.976-3.57-.976a8.887 8.887 0 0 0-3.765.836c-1.209.558-2.24 1.228-3.096 2.008l-4.63-4.964zm16.788 11.88h-1.17c-1.005 0-2.018.047-3.04.14-1.023.093-1.934.27-2.734.53s-1.46.641-1.98 1.143-.78 1.163-.78 1.98c0 .521.12.967.362 1.34.242.371.548.669.92.892.372.223.8.38 1.283.474.483.093.948.14 1.394.14 1.86 0 3.282-.512 4.267-1.535.986-1.022 1.478-2.407 1.478-4.155v-.948zM107.094 122.872a11.255 11.255 0 0 1-.468 2.591c-.243.8-.624 1.48-1.132 2.029-.474.513-1.117.765-1.964.765-.869 0-1.518-.25-1.98-.762-.495-.55-.871-1.233-1.115-2.032a11.255 11.255 0 0 1-.468-2.591c-.06-.92-.091-1.71-.091-2.373 0-.66.03-1.45.09-2.37.058-.895.215-1.768.469-2.592.244-.8.62-1.482 1.115-2.033.462-.51 1.111-.76 1.98-.76.847 0 1.489.25 1.964.764.508.549.889 1.231 1.132 2.029.254.824.411 1.697.468 2.591.06.921.089 1.712.089 2.371 0 .663-.029 1.453-.089 2.373zm4.35-11.371a9.204 9.204 0 0 0-3.023-3.237c-1.284-.839-2.93-1.264-4.891-1.264-1.961 0-3.606.425-4.89 1.264a9.217 9.217 0 0 0-3.022 3.237c-.725 1.298-1.234 2.76-1.516 4.348a26.72 26.72 0 0 0-.42 4.65c0 1.519.141 3.084.42 4.653.282 1.587.791 3.05 1.516 4.347a9.205 9.205 0 0 0 3.022 3.237c1.284.839 2.929 1.264 4.89 1.264 1.961 0 3.607-.425 4.89-1.264a9.192 9.192 0 0 0 3.023-3.237c.725-1.3 1.234-2.763 1.517-4.348.278-1.57.417-3.135.417-4.652 0-1.515-.14-3.08-.417-4.65-.283-1.585-.792-3.048-1.517-4.348zm4.331 3.265l3.589 4.121 4.733-4.152v18.836h5.977v-26.142h-5.578l-8.72 7.337zm33.019 4.107c-.682.68-1.558 1.01-2.677 1.01s-1.994-.33-2.678-1.01c-.68-.68-1.012-1.518-1.012-2.56 0-1.044.332-1.881 1.012-2.56.684-.68 1.56-1.01 2.678-1.01 1.12 0 1.995.33 2.677 1.01.682.679 1.013 1.516 1.013 2.56 0 1.042-.331 1.88-1.013 2.56zm4.326-9.372c-.884-.795-1.944-1.416-3.148-1.851-1.2-.432-2.496-.65-3.855-.65-1.382 0-2.685.218-3.871.65-1.197.435-2.251 1.057-3.131 1.85a8.74 8.74 0 0 0-2.108 2.868c-.514 1.11-.774 2.364-.774 3.73a9.52 9.52 0 0 0 .601 3.38 8.242 8.242 0 0 0 1.699 2.764 7.962 7.962 0 0 0 2.646 1.847c1.028.452 2.183.68 3.43.68.307 0 .605-.022.887-.066l-5.838 8.868h7.543l5.685-8.847c.408-.647.798-1.276 1.171-1.885.378-.622.715-1.286.999-1.972.284-.693.515-1.432.683-2.194.174-.777.261-1.642.261-2.575 0-1.365-.26-2.618-.772-3.729a8.77 8.77 0 0 0-2.108-2.868zm-65.262 12.623c.487-.438.945-.893 1.36-1.355a8.788 8.788 0 0 0 1.112-1.558 7.99 7.99 0 0 0 .74-1.886 9.435 9.435 0 0 0 .262-2.302c0-1.312-.223-2.486-.662-3.488a6.946 6.946 0 0 0-1.85-2.525c-.779-.664-1.709-1.171-2.76-1.508a11.017 11.017 0 0 0-3.355-.502c-1.28 0-2.485.168-3.582.5-1.112.336-2.095.848-2.922 1.523a7.593 7.593 0 0 0-2.009 2.549c-.502 1.01-.794 2.212-.87 3.572l-.02.397 6.184.452.031-.4c.066-.823.342-1.495.849-2.05.488-.538 1.158-.8 2.05-.8.753 0 1.387.212 1.942.647.524.414.779.972.779 1.706 0 .67-.214 1.237-.655 1.738-.492.56-.988 1.068-1.473 1.506L73 127.299v6.272h18.548v-5.529H80.96l6.9-5.918z"/>
    </g>
</svg>
