<svg xmlns="http://www.w3.org/2000/svg" width="714" height="200" viewBox="0 0 714 200">
    <path fill="#FFF" fill-rule="nonzero" d="M63.695 61.98l-3.571-18.385h-.143L56.41 61.98h7.285zM45.696 79.723l11.357-50.735h6.07L74.48 79.723h-7.285L65.052 68.82h-9.928l-2.143 10.903h-7.285zm36.57-38.764c0-2.043.357-3.848 1.07-5.416.715-1.567 1.667-2.874 2.858-3.919a12.085 12.085 0 0 1 3.892-2.28 12.892 12.892 0 0 1 4.393-.784c1.476 0 2.94.261 4.393.784a12.955 12.955 0 0 1 3.964 2.28c1.142 1.045 2.071 2.352 2.785 3.92.714 1.567 1.072 3.372 1.072 5.415v2.565h-7.286V40.96c0-1.758-.488-3.052-1.464-3.884-.976-.831-2.13-1.247-3.464-1.247-1.333 0-2.488.416-3.464 1.247-.976.832-1.464 2.126-1.464 3.884v26.793c0 1.757.488 3.052 1.464 3.883s2.13 1.247 3.464 1.247c1.333 0 2.488-.416 3.464-1.247.976-.831 1.464-2.126 1.464-3.883v-9.549h-5.785V51.79h13.07v15.962c0 2.137-.357 3.966-1.07 5.486-.715 1.52-1.644 2.78-2.786 3.777a12.254 12.254 0 0 1-3.964 2.352 12.892 12.892 0 0 1-4.393.783c-1.476 0-2.94-.26-4.393-.783a11.466 11.466 0 0 1-3.892-2.352c-1.19-.998-2.143-2.256-2.857-3.777-.714-1.52-1.072-3.349-1.072-5.486V40.959zm35.712 38.764V28.988h7.285v50.735h-7.285zm18.999 0V28.988h7.285v43.467h14.428v7.268h-21.713zm31.07 0V28.988h21.712v6.84h-14.427v14.893h12.57v6.84h-12.57v14.894h14.427v7.268h-21.713zm30.64 5.273V72.455h7.286v7.268l-7.286 5.273zm59.426-19.738v3.135c0 1.568-.298 3.052-.893 4.454a12.317 12.317 0 0 1-2.464 3.74 11.88 11.88 0 0 1-3.679 2.601c-1.404.642-2.916.962-4.535.962-1.381 0-2.786-.19-4.214-.57a9.978 9.978 0 0 1-3.857-1.995c-1.143-.95-2.083-2.173-2.821-3.67-.738-1.496-1.107-3.408-1.107-5.736V40.246c0-1.662.285-3.206.857-4.632a10.899 10.899 0 0 1 2.428-3.705c1.048-1.045 2.298-1.864 3.75-2.458 1.452-.594 3.06-.891 4.821-.891 3.428 0 6.214 1.116 8.357 3.35 1.047 1.092 1.869 2.386 2.464 3.883.595 1.496.893 3.123.893 4.88v2.851h-7.286v-2.423c0-1.425-.404-2.66-1.214-3.705-.81-1.045-1.904-1.568-3.285-1.568-1.81 0-3.012.558-3.607 1.675-.596 1.116-.893 2.53-.893 4.24V67.68c0 1.473.321 2.708.964 3.706.643.997 1.798 1.496 3.464 1.496.476 0 .988-.083 1.536-.25a4.585 4.585 0 0 0 1.535-.819c.429-.38.786-.902 1.072-1.567.286-.665.428-1.497.428-2.494v-2.494h7.286zm34.14-36.27v39.334c0 1.662-.297 3.194-.892 4.596a11.706 11.706 0 0 1-2.536 3.74 12.121 12.121 0 0 1-3.785 2.566 11.395 11.395 0 0 1-4.571.926c-1.62 0-3.131-.308-4.536-.926a12.245 12.245 0 0 1-3.75-2.565 12.214 12.214 0 0 1-2.571-3.741c-.619-1.402-.928-2.934-.928-4.596V28.988h7.285v38.621c0 1.805.428 3.135 1.285 3.99.858.856 1.929 1.283 3.215 1.283 1.285 0 2.357-.427 3.214-1.282.857-.856 1.285-2.186 1.285-3.99V28.987h7.286zm11.5 50.735V28.988h7.285v43.467h14.428v7.268h-21.713zm30.57 0V35.828h-8.428v-6.84h24.141v6.84h-8.428v43.895h-7.285zm47.14-50.735v39.334c0 1.662-.298 3.194-.893 4.596a11.706 11.706 0 0 1-2.535 3.74 12.121 12.121 0 0 1-3.786 2.566 11.395 11.395 0 0 1-4.571.926c-1.62 0-3.13-.308-4.536-.926a12.245 12.245 0 0 1-3.75-2.565 12.214 12.214 0 0 1-2.57-3.741c-.62-1.402-.93-2.934-.93-4.596V28.988h7.286v38.621c0 1.805.429 3.135 1.286 3.99.857.856 1.928 1.283 3.214 1.283s2.357-.427 3.214-1.282c.857-.856 1.286-2.186 1.286-3.99V28.987h7.285zm18.785 6.84v15.82h4.142c1.286 0 2.31-.179 3.071-.535.762-.356 1.358-.867 1.786-1.532.381-.665.643-1.485.786-2.458.143-.974.214-2.103.214-3.385 0-1.283-.071-2.411-.214-3.385-.143-.974-.429-1.817-.857-2.53-.905-1.33-2.62-1.995-5.143-1.995h-3.785zm-7.286 43.895V28.988h11.714c8.57 0 12.856 4.964 12.856 14.892 0 2.993-.464 5.535-1.392 7.625-.929 2.09-2.56 3.777-4.893 5.06l7.857 23.158h-7.714l-6.786-21.662h-4.356v21.662h-7.286zm35.07 0V28.988h21.713v6.84h-14.428v14.893h12.57v6.84h-12.57v14.894h14.428v7.268h-21.713zm30.64 5.273V72.455h7.286v7.268l-7.285 5.273zm36.285-5.273V28.988h7.285V50.72h9V28.988h7.285v50.735h-7.286V57.134h-9v22.589h-7.284zm58.64-50.735v39.334c0 1.662-.298 3.194-.894 4.596a11.706 11.706 0 0 1-2.535 3.74 12.121 12.121 0 0 1-3.786 2.566 11.395 11.395 0 0 1-4.57.926c-1.62 0-3.132-.308-4.536-.926a12.245 12.245 0 0 1-3.75-2.565 12.214 12.214 0 0 1-2.571-3.741c-.62-1.402-.929-2.934-.929-4.596V28.988h7.285v38.621c0 1.805.429 3.135 1.286 3.99.857.856 1.928 1.283 3.214 1.283s2.357-.427 3.214-1.282c.857-.856 1.286-2.186 1.286-3.99V28.987h7.285zm11.498 50.735V28.988h7l9.357 26.864h.143l9.285-26.864h7.07v50.735h-7.285V48.868h-.142l-7.214 21.805h-3.643l-7.142-21.805h-.143v30.855h-7.286zm59.069-17.743l-3.572-18.385h-.142l-3.572 18.385h7.286zm-18 17.743l11.357-50.735h6.071l11.357 50.735h-7.286l-2.142-10.903h-9.928l-2.143 10.903h-7.285zm36.713 0V28.988h7l10.999 30.569h.143v-30.57h7.285v50.736h-6.857l-11.142-30.498h-.143v30.498h-7.285zM157.08 171.115V120.38h10.642c2.333 0 4.321.356 5.964 1.068 1.643.713 2.988 1.663 4.036 2.85a10.636 10.636 0 0 1 2.25 4.098c.452 1.544.678 3.147.678 4.81v1.853c0 1.377-.107 2.541-.321 3.491-.215.95-.536 1.782-.965 2.494-.809 1.33-2.047 2.47-3.714 3.42 1.715.808 2.976 1.996 3.786 3.563.81 1.568 1.214 3.706 1.214 6.414v2.85c0 4.465-1.083 7.886-3.25 10.261-2.166 2.375-5.63 3.563-10.392 3.563h-9.928zm7.285-23.515v16.247h3.143c1.476 0 2.63-.214 3.464-.642.833-.427 1.464-1.021 1.893-1.781.428-.76.69-1.663.786-2.708.095-1.045.142-2.185.142-3.42 0-1.283-.071-2.4-.214-3.35-.143-.95-.428-1.757-.857-2.422-.476-.665-1.119-1.152-1.928-1.46-.81-.31-1.881-.464-3.215-.464h-3.214zm0-20.38v13.967h3.286c2.428 0 4.06-.606 4.892-1.817.834-1.212 1.25-2.981 1.25-5.309 0-2.28-.464-3.99-1.392-5.13-.929-1.14-2.607-1.71-5.036-1.71h-3zm28.499 43.895V120.38h21.713v6.84h-14.428v14.893h12.57v6.84h-12.57v14.894h14.428v7.268h-21.713zm55.21 0V127.22h-8.427v-6.84h24.141v6.84h-8.428v43.895h-7.285zm24.285 0V120.38h7.286v21.733h9V120.38h7.284v50.735h-7.285v-22.589h-9v22.589h-7.285zm35.784 0V120.38h21.713v6.84h-14.428v14.893H328v6.84h-12.57v14.894h14.427v7.268h-21.713zm73.567-14.465v3.135c0 1.568-.297 3.052-.893 4.454a12.317 12.317 0 0 1-2.464 3.74 11.88 11.88 0 0 1-3.678 2.601c-1.405.642-2.917.962-4.536.962-1.38 0-2.785-.19-4.214-.57a9.978 9.978 0 0 1-3.856-1.995c-1.143-.95-2.084-2.173-2.822-3.67-.738-1.496-1.107-3.408-1.107-5.736v-27.933c0-1.662.286-3.206.857-4.632a10.899 10.899 0 0 1 2.429-3.705c1.047-1.045 2.297-1.864 3.75-2.458 1.452-.594 3.059-.891 4.82-.891 3.429 0 6.215 1.116 8.357 3.35 1.048 1.092 1.87 2.386 2.464 3.883.596 1.496.893 3.123.893 4.88v2.851h-7.285v-2.423c0-1.425-.405-2.66-1.214-3.705-.81-1.045-1.905-1.568-3.286-1.568-1.81 0-3.012.558-3.607 1.675-.595 1.116-.893 2.53-.893 4.24v25.937c0 1.473.322 2.708.965 3.706.643.997 1.797 1.496 3.464 1.496.476 0 .988-.083 1.535-.25a4.585 4.585 0 0 0 1.536-.819c.429-.38.786-.902 1.071-1.567.286-.665.429-1.497.429-2.494v-2.494h7.285zm11.285 14.465V120.38h7.286v21.733h9V120.38h7.284v50.735h-7.285v-22.589h-9v22.589h-7.285zm50.498-17.743l-3.572-18.385h-.143l-3.57 18.385h7.285zm-18 17.743l11.357-50.735h6.071l11.357 50.735h-7.286l-2.142-10.903h-9.928l-2.143 10.903h-7.285zm37.427 0V120.38h7l10.999 30.569h.143v-30.57h7.285v50.736h-6.857l-11.142-30.498h-.143v30.498h-7.285zm36.927-38.764c0-2.043.357-3.848 1.07-5.416.715-1.567 1.667-2.874 2.858-3.919a12.085 12.085 0 0 1 3.893-2.28 12.892 12.892 0 0 1 4.392-.784c1.476 0 2.94.261 4.393.784a12.955 12.955 0 0 1 3.964 2.28c1.143 1.045 2.071 2.352 2.785 3.92.715 1.567 1.072 3.372 1.072 5.415v2.565h-7.286v-2.565c0-1.758-.488-3.052-1.464-3.884-.976-.831-2.13-1.247-3.464-1.247-1.333 0-2.488.416-3.464 1.247-.976.832-1.464 2.126-1.464 3.884v26.793c0 1.757.488 3.052 1.464 3.883s2.13 1.247 3.464 1.247c1.333 0 2.488-.416 3.464-1.247.976-.831 1.464-2.126 1.464-3.883v-9.549h-5.785v-6.413h13.07v15.962c0 2.137-.356 3.966-1.07 5.486-.715 1.52-1.643 2.78-2.786 3.777a12.254 12.254 0 0 1-3.964 2.352 12.892 12.892 0 0 1-4.393.783c-1.476 0-2.94-.26-4.392-.783a11.466 11.466 0 0 1-3.893-2.352c-1.19-.998-2.143-2.256-2.857-3.777-.714-1.52-1.071-3.349-1.071-5.486V132.35zm36.212 38.764V120.38h21.713v6.84h-14.428v14.893h12.57v6.84h-12.57v14.894h14.428v7.268h-21.713z"/>
</svg>
